<?xml version="1.0" encoding="UTF-8"?>
<svg id="_图层_2" data-name="图层 2" xmlns="http://www.w3.org/2000/svg" viewBox="0 0 161.57 246.61">
  <g id="_图层_1-2" data-name="图层 1">
    <path d="m161.57,241.01c0,3.08-2.51,5.6-5.57,5.6H5.57c-3.06,0-5.57-2.52-5.57-5.6V5.61C0,2.52,2.51,0,5.57,0h150.43c3.06,0,5.57,2.52,5.57,5.61v235.4Z" style="fill: none; fill-rule: evenodd; stroke-width: 0px;"/>
    <g>
      <path d="m83.88,72.39c-9.96,15.68-19.33,25.68-24.55,32.16-5.22,6.48-13.28,16.71-11.5,27.84,1.78,11.14,10.95,15.38,18.97,14.77,7.7-.58,13.22-8.07,13.22-8.07-1.3,13.46-11.29,23.87-11.29,23.87,4.56-1.77,12.3-1.91,15.15-1.91s10.59.14,15.15,1.91c0,0-9.99-10.4-11.29-23.87,0,0,5.52,7.49,13.22,8.07,8.02.61,17.19-3.64,18.97-14.77,1.78-11.14-6.29-21.36-11.5-27.84-5.22-6.48-14.59-16.48-24.55-32.16Z" style="fill: none; fill-rule: evenodd; stroke: #fff; stroke-linecap: round; stroke-linejoin: round; stroke-width: 1.13px;"/>
      <path d="m83.88,72.39c-9.96,15.68-19.33,25.68-24.55,32.16-5.22,6.48-13.28,16.71-11.5,27.84,1.78,11.14,10.95,15.38,18.97,14.77,7.7-.58,13.22-8.07,13.22-8.07-1.3,13.46-11.29,23.87-11.29,23.87,4.56-1.77,12.3-1.91,15.15-1.91s10.59.14,15.15,1.91c0,0-9.99-10.4-11.29-23.87,0,0,5.52,7.49,13.22,8.07,8.02.61,17.19-3.64,18.97-14.77,1.78-11.14-6.29-21.36-11.5-27.84-5.22-6.48-14.59-16.48-24.55-32.16Z" style="fill: #231815; fill-rule: evenodd; stroke-width: 0px;"/>
    </g>
    <g>
      <g>
        <polygon points="83.78 96.64 103.18 106.46 103.26 126.06 83.68 135.76 64.18 126.06 64.39 106.5 83.78 96.64" style="fill: #fff; stroke: #231815; stroke-miterlimit: 10; stroke-width: .55px;"/>
        <polygon points="67.06 107.25 83.55 98.83 87.84 101.3 75.64 107.45 83.81 111.63 92.17 107.43 90.04 106.18 83.79 109.67 79.78 107.31 90.04 102.08 100.08 107.5 83.72 115.91 67.06 107.25" style="fill: #231815; stroke: #231815; stroke-miterlimit: 10; stroke-width: .55px;"/>
        <polygon points="66.51 108.44 83.08 116.79 82.91 127.29 76.91 124.04 76.93 126.32 82.71 129.29 82.91 133.42 72.59 128.28 72.79 121.69 70.46 120.93 70.37 127.27 66.16 125.09 66.51 108.44" style="fill: #231815; stroke-width: 0px;"/>
        <polyline points="101.01 121.08 88.99 127.37 88.99 125 101.12 118.82 101.12 114.75 89.36 120.89 88.62 120.84 88.62 118.84 101.33 112.49 101.33 108.45 84.59 116.86 84.59 133.61 101.33 124.95 101.18 121.03" style="fill: #231815; stroke-width: 0px;"/>
      </g>
      <polygon points="70.48 114.75 70.48 116.95 78.66 120.93 78.76 118.67 70.48 114.75" style="fill: #fff; stroke-width: 0px;"/>
    </g>
  </g>
</svg>